<?xml version="1.0" encoding="utf-8"?>
<!-- Generator: Adobe Illustrator 24.0.0, SVG Export Plug-In . SVG Version: 6.00 Build 0)  -->
<svg version="1.1" id="Layer_1" xmlns="http://www.w3.org/2000/svg" xmlns:xlink="http://www.w3.org/1999/xlink" x="0px" y="0px"
	 viewBox="0 0 800 392" style="enable-background:new 0 0 800 392;" xml:space="preserve">
<style type="text/css">
	.st0{clip-path:url(#SVGID_2_);fill:none;}
	.st1{clip-path:url(#SVGID_2_);fill:#FFFFFF;}
	.st2{clip-path:url(#SVGID_2_);}
	.st3{clip-path:url(#SVGID_2_);enable-background:new    ;}
	.st4{fill:#FFFFFF;}
	.st5{font-family:'NotoSans-Bold';}
	.st6{font-size:26px;}
</style>
<g>
	<defs>
		<rect id="SVGID_1_" width="800" height="392"/>
	</defs>
	<clipPath id="SVGID_2_">
		<use xlink:href="#SVGID_1_"  style="overflow:visible;"/>
	</clipPath>
	<circle class="st0" cx="66.5" cy="45" r="41.5"/>
	<path class="st1" d="M66.5,86.5C43.6,86.5,25,67.9,25,45S43.6,3.5,66.5,3.5S108,22.1,108,45S89.4,86.5,66.5,86.5z M66.5,8.5
		C46.4,8.5,30,24.9,30,45s16.4,36.5,36.5,36.5S103,65.1,103,45S86.6,8.5,66.5,8.5z"/>
	<circle class="st0" cx="744.5" cy="47" r="27.5"/>
	<path class="st1" d="M744.5,74.5C729.3,74.5,717,62.2,717,47s12.3-27.5,27.5-27.5S772,31.8,772,47S759.7,74.5,744.5,74.5z
		 M744.5,22.5C731,22.5,720,33.5,720,47s11,24.5,24.5,24.5S769,60.5,769,47S758,22.5,744.5,22.5z"/>
	<path class="st1" d="M646.4,37.8c-2.4,3.5-5.3,4.5-7.8,4.5c-3.9,0-7.5-2.3-6.9-6.8l1-6.8c0.6-4.5,4.9-6.8,8.8-6.8
		c2.4,0,5.2,1,6.3,4.6l-4.3,1.7c-0.4-1.1-1.6-1.6-2.8-1.6c-1.4,0-2.9,0.8-3.1,2.2l-1,6.8c-0.2,1.3,1,2.1,2.4,2.1
		c1.1,0,2.4-0.5,3.1-1.8L646.4,37.8z M650.4,22.2h5L653.3,37h8.1l-0.7,5h-13.1L650.4,22.2z M668.2,35.3c-0.2,1.6,1.1,2.4,2.5,2.4
		c1.5,0,2.9-0.8,3.2-2.4l1.8-13.1h5.1l-1.8,13.1c-0.6,4.6-5,7-8.9,7c-4,0-7.6-2.3-6.9-7l1.8-13.1h5.1L668.2,35.3z M694.8,31.4
		c2.5,1.4,2.5,3.9,2,5.4c-1,3.2-3.4,5.1-7.8,5.1H681l2.8-19.8h8c3.8,0,6.2,2.3,5.6,6C697.1,29.1,696.3,30.7,694.8,31.4z M689.5,37.6
		c3,0,3.5-4.1,0.6-4.1h-2.9l-0.6,4.1H689.5z M690.6,29.9c2.4,0,3-3.5,0.5-3.5h-2.9l-0.5,3.5H690.6z"/>
	<path id="Path_442" class="st1" d="M0,122.3h220.5l-7.3,28.8H0V122.3z"/>
	<path id="Path_445" class="st1" d="M0.5,269.3h182.1l-7.3,28.8H0.5L0.5,269.3z"/>
	<path id="Subtraction_7" class="st1" d="M224.3,151.1h-5.2l7.3-28.8h5.2L224.3,151.1z"/>
	<path id="Subtraction_8" class="st1" d="M186.3,298.1h-5.2l7.3-28.8h5.2L186.3,298.1z"/>
	<path class="st2" d="M18.6,134.5c-0.2-0.6-0.7-0.9-1.3-0.9c-0.8,0-1.5,0.5-1.6,1.2l-0.5,3.6c-0.1,0.8,0.6,1.2,1.4,1.2
		c0.8,0,1.6-0.4,1.7-1.2l0.1-0.5h-1.7l0.3-2.2h4.3l-0.4,2.6c-0.3,2.4-2.6,3.7-4.7,3.7c-2.1,0-4-1.2-3.7-3.7l0.5-3.6
		c0.3-2.5,2.6-3.6,4.7-3.6c1.4,0,2.9,0.6,3.4,2.3L18.6,134.5z M23,131.4h2.7l-1.1,8h4.3l-0.4,2.7h-7L23,131.4z M30.2,134.9
		c0.4-2.4,2.7-3.6,4.9-3.6c2.2,0,4.2,1.2,3.9,3.6l-0.5,3.6c-0.3,2.4-2.6,3.6-4.9,3.6c-2.2,0-4.2-1.2-3.9-3.6L30.2,134.9z
		 M32.4,138.5c-0.1,0.8,0.7,1.2,1.5,1.2c0.9,0,1.8-0.4,1.9-1.2l0.5-3.6c0.1-0.8-0.6-1.2-1.5-1.2c-0.9,0-1.8,0.4-1.9,1.2L32.4,138.5z
		 M46.8,136.3c1.4,0.7,1.3,2.1,1.1,2.9c-0.5,1.7-1.8,2.7-4.2,2.7h-4.3l1.5-10.6h4.3c2,0,3.3,1.2,3,3.2
		C48.1,135.1,47.7,136,46.8,136.3z M44,139.6c1.6,0,1.9-2.2,0.3-2.2h-1.6l-0.3,2.2H44z M44.6,135.5c1.3,0,1.6-1.9,0.3-1.9h-1.6
		l-0.3,1.9H44.6z M57.6,142h-2.9l-0.4-2.1h-2.8l-0.9,2.1h-2.9l5.2-10.6h2.4L57.6,142z M54,137.5l-0.3-3.1h-0.1l-1.2,3.1H54z
		 M59.8,131.4h2.7l-1.1,8h4.3l-0.4,2.7h-7L59.8,131.4z M70.3,131.4H73l-1.1,8h4.3l-0.4,2.7h-7L70.3,131.4z M80.4,135.5h4.3l-0.3,2.4
		h-4.3l-0.2,1.6h4.7l-0.3,2.5h-7.4l1.5-10.6h7.4l-0.4,2.5h-4.7L80.4,135.5z M93.4,131.4h2.9L90.9,142h-2.5l-2.3-10.6H89l0.9,5.2
		l0.2,2.5h0l0.8-2.5L93.4,131.4z M99.1,135.5h4.3l-0.3,2.4h-4.3l-0.2,1.6h4.7l-0.3,2.5h-7.4l1.5-10.6h7.4l-0.4,2.5h-4.7L99.1,135.5z
		 M105.7,131.4h2.7l-1.1,8h4.3l-0.4,2.7h-7L105.7,131.4z"/>
	<path class="st2" d="M13.8,285.6c0.5,0.7,1.4,1,2.1,1c0.7,0,1.3-0.3,1.5-0.8c0.1-0.7-0.8-0.9-1.7-1.1c-1.7-0.3-3.2-1.6-2.8-3.6
		c0.4-2.2,2.3-2.9,4.3-2.9c1.3,0,2.5,0.4,3.4,1.7l-2,1.3c-0.4-0.5-1.2-0.8-1.8-0.8c-0.7,0-1.2,0.2-1.3,0.8c-0.1,0.6,0.5,0.9,1.3,1.1
		c1.8,0.3,3.6,1,3.1,3.7c-0.4,2.1-2.2,3.1-4.5,3.1c-1.3,0-2.8-0.6-3.7-1.9L13.8,285.6z M24.3,282.5h4.3l-0.3,2.4H24l-0.2,1.6h4.7
		l-0.3,2.5h-7.4l1.5-10.6h7.4l-0.4,2.5h-4.7L24.3,282.5z M33.2,285.6h-0.5l-0.5,3.4h-2.7l1.5-10.6h4.2c2.2,0,3.8,1.2,3.4,3.7
		c-0.3,2-1.1,2.6-2.6,3.3l2.5,3.6h-3.3L33.2,285.6z M34.6,283.3c0.8,0,1.3-0.6,1.4-1.2c0.1-0.6-0.2-1.2-1-1.2h-1.6l-0.3,2.4H34.6z
		 M46.6,278.4h2.9L44.1,289h-2.5l-2.3-10.6h2.9l0.9,5.2l0.2,2.5h0l0.8-2.5L46.6,278.4z M52.2,282.5h4.3l-0.3,2.4h-4.3l-0.2,1.6h4.7
		L56,289h-7.4l1.5-10.6h7.4l-0.4,2.5h-4.7L52.2,282.5z M61.1,285.6h-0.5l-0.5,3.4h-2.7l1.5-10.6h4.2c2.2,0,3.8,1.2,3.4,3.7
		c-0.3,2-1.1,2.6-2.6,3.3l2.5,3.6h-3.3L61.1,285.6z M62.5,283.3c0.8,0,1.3-0.6,1.4-1.2c0.1-0.6-0.2-1.2-1-1.2h-1.6l-0.3,2.4H62.5z
		 M71.2,278.4h2.7l-1.1,8h4.3l-0.4,2.7h-7L71.2,278.4z M81.4,282.5h4.3l-0.3,2.4H81l-0.2,1.6h4.7l-0.3,2.5h-7.4l1.5-10.6h7.4
		l-0.4,2.5h-4.7L81.4,282.5z M94.3,278.4h2.9L91.9,289h-2.5l-2.3-10.6h2.9l0.9,5.2l0.2,2.5h0l0.8-2.5L94.3,278.4z M100,282.5h4.3
		l-0.3,2.4h-4.3l-0.2,1.6h4.7l-0.3,2.5h-7.4l1.5-10.6h7.4l-0.4,2.5h-4.7L100,282.5z M106.7,278.4h2.7l-1.1,8h4.3l-0.4,2.7h-7
		L106.7,278.4z"/>
	<g class="st3">
		<text transform="matrix(1 0 0 1 12 338)" class="st4 st5 st6">lv.</text>
	</g>
	<g class="st3">
		<text transform="matrix(1 0 0 1 12 191)" class="st4 st5 st6">lv.</text>
	</g>
	<path class="st1" d="M131.6,315.9v4.1h-2.3v-10.7h3.1c1.5,0,2.5,0.3,3.2,0.8c0.7,0.5,1,1.3,1,2.4c0,0.6-0.2,1.2-0.5,1.7
		c-0.3,0.5-0.8,0.9-1.5,1.2l3.1,4.7h-2.5l-2.6-4.1H131.6z M131.6,314h0.7c0.7,0,1.2-0.1,1.6-0.4s0.5-0.6,0.5-1.1
		c0-0.5-0.2-0.9-0.5-1.1s-0.9-0.3-1.6-0.3h-0.7V314z M145.8,320l-0.8-2.5h-3.9l-0.8,2.5h-2.4l3.8-10.8h2.8l3.8,10.8H145.8z
		 M144.5,315.5c-0.7-2.3-1.1-3.6-1.2-3.9s-0.2-0.5-0.2-0.7c-0.2,0.6-0.6,2.2-1.4,4.6H144.5z M159.1,320h-2.9l-4.7-8.1h-0.1
		c0.1,1.4,0.1,2.5,0.1,3.1v5h-2v-10.7h2.9l4.7,8h0.1c-0.1-1.4-0.1-2.4-0.1-3v-5.1h2V320z M170.4,320h-2.6l-2.8-4.5l-1,0.7v3.8h-2.3
		v-10.7h2.3v4.9l0.9-1.3l2.9-3.6h2.5l-3.7,4.7L170.4,320z"/>
	<path class="st1" d="M131.6,168.9v4.1h-2.3v-10.7h3.1c1.5,0,2.5,0.3,3.2,0.8c0.7,0.5,1,1.3,1,2.4c0,0.6-0.2,1.2-0.5,1.7
		c-0.3,0.5-0.8,0.9-1.5,1.2l3.1,4.7h-2.5l-2.6-4.1H131.6z M131.6,167h0.7c0.7,0,1.2-0.1,1.6-0.4s0.5-0.6,0.5-1.1
		c0-0.5-0.2-0.9-0.5-1.1s-0.9-0.3-1.6-0.3h-0.7V167z M145.8,173l-0.8-2.5h-3.9l-0.8,2.5h-2.4l3.8-10.8h2.8l3.8,10.8H145.8z
		 M144.5,168.5c-0.7-2.3-1.1-3.6-1.2-3.9s-0.2-0.5-0.2-0.7c-0.2,0.6-0.6,2.2-1.4,4.6H144.5z M159.1,173h-2.9l-4.7-8.1h-0.1
		c0.1,1.4,0.1,2.5,0.1,3.1v5h-2v-10.7h2.9l4.7,8h0.1c-0.1-1.4-0.1-2.4-0.1-3v-5.1h2V173z M170.4,173h-2.6l-2.8-4.5l-1,0.7v3.8h-2.3
		v-10.7h2.3v4.9l0.9-1.3l2.9-3.6h2.5l-3.7,4.7L170.4,173z"/>
	<path id="update" class="st1" d="M36,364.1h-6.8l2.7-2.8c-2.7-2.7-7.1-2.8-9.9-0.1c-2.7,2.7-2.7,7-0.1,9.7c0,0,0,0,0.1,0.1
		c2.7,2.7,7.1,2.7,9.9,0c1.3-1.3,2.1-3.1,2-4.9h2c-0.1,2.4-1,4.6-2.6,6.3c-3.5,3.5-9.2,3.5-12.7,0c-3.5-3.4-3.5-9-0.1-12.5
		c0,0,0.1-0.1,0.1-0.1c3.5-3.5,9.1-3.5,12.7,0L36,357V364.1 M27.5,362v4.3l3.5,2.1l-0.7,1.2L26,367v-5H27.5z"/>
	<path id="update-2" class="st1" d="M36,217.1h-6.8l2.7-2.8c-2.7-2.7-7.1-2.8-9.9-0.1c-2.7,2.7-2.7,7-0.1,9.7c0,0,0,0,0.1,0.1
		c2.7,2.7,7.1,2.7,9.9,0c1.3-1.3,2.1-3.1,2-4.9h2c-0.1,2.4-1,4.6-2.6,6.3c-3.5,3.5-9.2,3.5-12.7,0c-3.5-3.4-3.5-9-0.1-12.5
		c0,0,0.1-0.1,0.1-0.1c3.5-3.5,9.1-3.5,12.7,0L36,210V217.1 M27.5,215v4.3l3.5,2.1l-0.7,1.2L26,220v-5H27.5z"/>
	<path class="st1" d="M144.7,338.3l-0.2,0.5h-4.8l-1.9,6.2h-0.6l1.9-6.2h-5.2l-1.9,6.2h-0.6l1.9-6.2h-4.2l0.1-0.5h4.2l1.5-5.1h-4.8
		l0.2-0.5h4.8l1.8-6.1h0.6l-1.8,6.1h5.2l1.8-6.1h0.6l-1.8,6.1h4.2l-0.2,0.5h-4.3l-1.5,5.1H144.7z M134.1,338.3h5.2l1.5-5.1h-5.2
		L134.1,338.3z"/>
	<path class="st1" d="M144.7,191.3l-0.2,0.5h-4.8l-1.9,6.2h-0.6l1.9-6.2h-5.2l-1.9,6.2h-0.6l1.9-6.2h-4.2l0.1-0.5h4.2l1.5-5.1h-4.8
		l0.2-0.5h4.8l1.8-6.1h0.6l-1.8,6.1h5.2l1.8-6.1h0.6l-1.8,6.1h4.2l-0.2,0.5h-4.3l-1.5,5.1H144.7z M134.1,191.3h5.2l1.5-5.1h-5.2
		L134.1,191.3z"/>
	<path class="st1" d="M257.1,235.9H222l0.3-1.3c0,0,8.7-32.5,17.5-64.9c17.6-65.3,17.6-65.4,18.1-65.7l0,0c0.3-0.2,0.6-0.4,33.6-0.2
		l1.3,0L257.1,235.9z M224.6,233.9h30.9l34.6-128.1c-11.5-0.1-27.6-0.1-30.9,0C257,113.5,236.1,191.2,224.6,233.9z"/>
	<path class="st1" d="M219.1,379.9H184l0.3-1.3c0,0,8.7-32.5,17.5-64.9c17.6-65.3,17.6-65.4,18.1-65.7l0,0c0.3-0.2,0.6-0.4,33.6-0.2
		l1.3,0L219.1,379.9z M186.6,377.9h30.9l34.6-128.1c-11.5-0.1-27.6-0.1-30.9,0C219,257.5,198.1,335.2,186.6,377.9z"/>
	<path class="st1" d="M800.1,235.9H765l0.3-1.3c0,0,8.7-32.5,17.5-64.9c17.6-65.3,17.6-65.4,18.1-65.7l0,0c0.3-0.2,0.6-0.4,33.6-0.2
		l1.3,0l-0.3,1.3L800.1,235.9z M767.6,233.9h30.9l34.6-128.1c-11.5-0.1-27.6-0.1-30.9,0C800,113.5,779.1,191.2,767.6,233.9z"/>
	<path class="st1" d="M766.1,379.9H728l0.3-1.3c0,0,8.7-32.5,17.5-64.9c17.6-65.3,17.6-65.4,18.1-65.7l0,0c0.3-0.2,0.6-0.4,36.6-0.2
		l1.3,0L766.1,379.9z M730.6,377.9h33.9l34.6-128.1c-12.7-0.1-30.4-0.1-33.9,0C763,257.5,742.1,335.2,730.6,377.9z"/>
	<path class="st1" d="M738.1,235.9H286l0.3-1.3c0,0,8.7-32.5,17.5-64.9c17.6-65.3,17.6-65.4,18.1-65.7l0.6,0.8l-0.6-0.8
		c0.4-0.2,0.4-0.3,225.7-0.2c112.5,0,224.9,0.1,224.9,0.1l1.3,0l-0.3,1.3L738.1,235.9z M288.6,233.9h447.9l34.6-128
		c-26.2,0-429-0.2-448,0C320.9,113.7,300,191.3,288.6,233.9z"/>
	<path class="st1" d="M700.1,379.9H248l0.3-1.3c0,0,8.7-32.5,17.5-64.9c17.6-65.3,17.6-65.4,18.1-65.7l0.6,0.8l-0.6-0.8
		c0.4-0.2,0.4-0.3,225.7-0.2c112.5,0,224.9,0.1,224.9,0.1l1.3,0l-0.3,1.3L700.1,379.9z M250.6,377.9h447.9l34.6-128
		c-26.2,0-429-0.2-448,0C282.9,257.7,262,335.3,250.6,377.9z"/>
</g>
</svg>
